# Blender v2.79 (sub 0) OBJ File: 'lemari.blend'
# www.blender.org
mtllib lemari.mtl
o Cube_Cube.002
v -1.000000 0.000000 2.000000
v -1.000000 5.000000 2.000000
v 1.154080 0.239369 1.760631
v 1.123324 4.866403 1.866403
v -1.000000 2.032122 2.000000
v 1.154080 1.792753 1.760631
v -1.000000 3.516061 2.000000
v 1.135059 3.372147 1.856086
v 1.135059 2.176036 1.856086
v 1.163560 0.000000 2.000000
v 1.154080 1.792753 0.239369
v 1.154080 0.239369 0.239369
v 1.123324 3.649658 1.866403
v 1.298619 2.032122 2.000000
v 1.135059 3.372147 0.143914
v 1.135059 2.176036 0.143914
v 1.123324 5.000000 2.000000
v 1.123324 4.866403 0.133597
v 1.258383 3.516061 2.000000
v 1.123324 3.649658 0.133597
v 1.000000 0.000000 2.000000
v 1.000000 5.000000 2.000000
v -1.154080 0.239369 1.760631
v -1.123324 4.866403 1.866403
v 1.000000 2.032122 2.000000
v -1.154080 1.792753 1.760631
v 1.000000 3.516061 2.000000
v -1.135059 3.372147 1.856086
v -1.135059 2.176036 1.856086
v -1.163560 0.000000 2.000000
v -1.154080 1.792753 0.239369
v -1.154080 0.239369 0.239369
v -1.123324 3.649658 1.866403
v -1.298619 2.032122 2.000000
v -1.135059 3.372147 0.143914
v -1.135059 2.176036 0.143914
v -1.123324 5.000000 2.000000
v -1.123324 4.866403 0.133597
v -1.258383 3.516061 2.000000
v -1.123324 3.649658 0.133597
v -1.000000 0.000000 -2.000000
v -1.000000 5.000000 -2.000000
v 1.154080 0.239369 -1.760631
v 1.123324 4.866403 -1.866403
v -1.000000 0.000000 0.000000
v -1.000000 5.000000 0.000000
v 1.163560 0.000000 0.000000
v 1.123324 5.000000 0.000000
v -1.000000 2.032122 -2.000000
v 1.154080 1.792753 -1.760631
v 1.298619 2.032122 0.000000
v -1.000000 2.032122 0.000000
v -1.000000 3.516061 -2.000000
v 1.135059 3.372147 -1.856086
v 1.258383 3.516061 0.000000
v -1.000000 3.516061 0.000000
v 1.135059 2.176036 -1.856086
v 1.163560 0.000000 -2.000000
v 1.154080 1.792753 -0.239369
v 1.154080 0.239369 -0.239369
v 1.123324 3.649658 -1.866403
v 1.298619 2.032122 -2.000000
v 1.135059 3.372147 -0.143914
v 1.135059 2.176036 -0.143914
v 1.123324 5.000000 -2.000000
v 1.123324 4.866403 -0.133597
v 1.258383 3.516061 -2.000000
v 1.123324 3.649658 -0.133597
v 1.000000 0.000000 -2.000000
v 1.000000 5.000000 -2.000000
v -1.154080 0.239369 -1.760631
v -1.123324 4.866403 -1.866403
v 1.000000 0.000000 0.000000
v 1.000000 5.000000 0.000000
v -1.163560 0.000000 0.000000
v -1.123324 5.000000 0.000000
v 1.000000 2.032122 -2.000000
v -1.154080 1.792753 -1.760631
v -1.298619 2.032122 0.000000
v 1.000000 2.032122 0.000000
v 1.000000 3.516061 -2.000000
v -1.135059 3.372147 -1.856086
v -1.258383 3.516061 0.000000
v 1.000000 3.516061 0.000000
v -1.135059 2.176036 -1.856086
v -1.163560 0.000000 -2.000000
v -1.154080 1.792753 -0.239369
v -1.154080 0.239369 -0.239369
v -1.123324 3.649658 -1.866403
v -1.298619 2.032122 -2.000000
v -1.135059 3.372147 -0.143914
v -1.135059 2.176036 -0.143914
v -1.123324 5.000000 -2.000000
v -1.123324 4.866403 -0.133597
v -1.258383 3.516061 -2.000000
v -1.123324 3.649658 -0.133597
vn 1.0000 0.0000 0.0000
vn 0.0000 0.0000 1.0000
vn 0.0000 -1.0000 0.0000
vn 0.0000 1.0000 0.0000
vn -1.0000 0.0000 0.0000
vn 0.9513 -0.0358 -0.3061
vn 0.9992 0.0396 0.0000
vn 0.9513 -0.0358 0.3061
vn 0.8560 -0.5169 0.0000
vn 0.7082 0.0106 -0.7059
vn 0.7082 0.0106 0.7059
vn 0.6606 0.7508 0.0000
vn 0.7593 -0.6507 0.0000
vn 0.8916 0.0446 -0.4507
vn 0.8916 0.0446 0.4507
vn 0.7032 0.7109 0.0000
vn -0.9513 -0.0358 -0.3061
vn -0.9992 0.0396 0.0000
vn -0.9513 -0.0358 0.3061
vn -0.8560 -0.5169 0.0000
vn -0.7082 0.0106 -0.7059
vn -0.7082 0.0106 0.7059
vn -0.6606 0.7508 0.0000
vn -0.7593 -0.6507 0.0000
vn -0.8916 0.0446 -0.4507
vn -0.8916 0.0446 0.4507
vn -0.7032 0.7109 0.0000
vn 0.0000 0.0000 -1.0000
usemtl None
s off
f 20//1 18//1 4//1 13//1
f 19//2 17//2 2//2 7//2
f 45//3 47//3 10//3 1//3
f 48//4 46//4 2//4 17//4
f 7//5 2//5 46//5 56//5
f 1//5 5//5 52//5 45//5
f 10//2 14//2 5//2 1//2
f 12//1 11//1 6//1 3//1
f 5//5 7//5 56//5 52//5
f 14//2 19//2 7//2 5//2
f 16//1 15//1 8//1 9//1
f 3//6 6//6 14//6 10//6
f 12//7 3//7 10//7 47//7
f 11//8 12//8 47//8 51//8
f 6//9 11//9 51//9 14//9
f 9//10 8//10 19//10 14//10
f 15//11 16//11 51//11 55//11
f 16//12 9//12 14//12 51//12
f 8//13 15//13 55//13 19//13
f 4//1 18//1 48//1 17//1
f 13//14 4//14 17//14 19//14
f 18//15 20//15 55//15 48//15
f 20//16 13//16 19//16 55//16
f 40//5 33//5 24//5 38//5
f 39//2 27//2 22//2 37//2
f 73//3 21//3 30//3 75//3
f 76//4 37//4 22//4 74//4
f 27//1 84//1 74//1 22//1
f 21//1 73//1 80//1 25//1
f 30//2 21//2 25//2 34//2
f 32//5 23//5 26//5 31//5
f 25//1 80//1 84//1 27//1
f 34//2 25//2 27//2 39//2
f 36//5 29//5 28//5 35//5
f 23//17 30//17 34//17 26//17
f 32//18 75//18 30//18 23//18
f 31//19 79//19 75//19 32//19
f 26//20 34//20 79//20 31//20
f 29//21 34//21 39//21 28//21
f 35//22 83//22 79//22 36//22
f 36//23 79//23 34//23 29//23
f 28//24 39//24 83//24 35//24
f 24//5 37//5 76//5 38//5
f 33//25 39//25 37//25 24//25
f 38//26 76//26 83//26 40//26
f 40//27 83//27 39//27 33//27
f 68//1 61//1 44//1 66//1
f 67//28 53//28 42//28 65//28
f 45//3 41//3 58//3 47//3
f 48//4 65//4 42//4 46//4
f 53//5 56//5 46//5 42//5
f 41//5 45//5 52//5 49//5
f 58//28 41//28 49//28 62//28
f 60//1 43//1 50//1 59//1
f 49//5 52//5 56//5 53//5
f 62//28 49//28 53//28 67//28
f 64//1 57//1 54//1 63//1
f 43//8 58//8 62//8 50//8
f 60//7 47//7 58//7 43//7
f 59//6 51//6 47//6 60//6
f 50//9 62//9 51//9 59//9
f 57//11 62//11 67//11 54//11
f 63//10 55//10 51//10 64//10
f 64//12 51//12 62//12 57//12
f 54//13 67//13 55//13 63//13
f 44//1 65//1 48//1 66//1
f 61//15 67//15 65//15 44//15
f 66//14 48//14 55//14 68//14
f 68//16 55//16 67//16 61//16
f 96//5 94//5 72//5 89//5
f 95//28 93//28 70//28 81//28
f 73//3 75//3 86//3 69//3
f 76//4 74//4 70//4 93//4
f 81//1 70//1 74//1 84//1
f 69//1 77//1 80//1 73//1
f 86//28 90//28 77//28 69//28
f 88//5 87//5 78//5 71//5
f 77//1 81//1 84//1 80//1
f 90//28 95//28 81//28 77//28
f 92//5 91//5 82//5 85//5
f 71//19 78//19 90//19 86//19
f 88//18 71//18 86//18 75//18
f 87//17 88//17 75//17 79//17
f 78//20 87//20 79//20 90//20
f 85//22 82//22 95//22 90//22
f 91//21 92//21 79//21 83//21
f 92//23 85//23 90//23 79//23
f 82//24 91//24 83//24 95//24
f 72//5 94//5 76//5 93//5
f 89//26 72//26 93//26 95//26
f 94//25 96//25 83//25 76//25
f 96//27 89//27 95//27 83//27
